<svg xmlns="http://www.w3.org/2000/svg" width="317.531" height="296" viewBox="0 0 317.531 296">
    <g data-name="Group 520">
        <g data-name="Group 467">
            <path data-name="Path 1093" d="m310.925 270.681 2.265 2.265-2.265 2.265 1.342 1.342 2.265-2.265 2.265 2.265 1.342-1.342-2.265-2.265 2.265-2.265-1.342-1.342-2.265 2.265-2.265-2.265z" transform="translate(-108.293 -97.19)" style="opacity:.27;fill:#afcab7"/>
            <g data-name="Group 462" style="opacity:.22">
                <path data-name="Path 1094" d="M87.259 13.542a1.073 1.073 0 1 1 1.074-1.073 1.073 1.073 0 0 1-1.074 1.073z" transform="translate(-33.543 -11.396)" style="fill:#465a94"/>
                <path data-name="Path 1095" d="M71.484 13.542a1.073 1.073 0 1 1 1.073-1.073 1.073 1.073 0 0 1-1.073 1.073z" transform="translate(-28.296 -11.396)" style="fill:#465a94"/>
                <circle data-name="Ellipse 15" cx="1.073" cy="1.073" r="1.073" transform="translate(42.115 13.697)" style="fill:#465a94"/>
                <path data-name="Path 1096" d="M55.708 13.542a1.073 1.073 0 1 1 1.073-1.073 1.073 1.073 0 0 1-1.073 1.073z" transform="translate(-23.048 -11.396)" style="fill:#465a94"/>
                <circle data-name="Ellipse 16" cx="1.073" cy="1.073" r="1.073" transform="translate(31.586 13.697)" style="fill:#465a94"/>
                <path data-name="Path 1097" d="M55.708 54.59a1.073 1.073 0 1 1 1.073-1.073 1.073 1.073 0 0 1-1.073 1.073z" transform="translate(-23.048 -25.049)" style="fill:#465a94"/>
                <path data-name="Path 1098" d="M39.932 13.542a1.073 1.073 0 1 1 1.073-1.073 1.073 1.073 0 0 1-1.073 1.073z" transform="translate(-17.801 -11.396)" style="fill:#465a94"/>
                <path data-name="Path 1099" d="M39.932 34.066a1.073 1.073 0 1 1 1.073-1.073 1.073 1.073 0 0 1-1.073 1.073z" transform="translate(-17.801 -18.222)" style="fill:#465a94"/>
                <path data-name="Path 1100" d="M39.932 54.59a1.073 1.073 0 1 1 1.073-1.073 1.073 1.073 0 0 1-1.073 1.073z" transform="translate(-17.801 -25.049)" style="fill:#465a94"/>
                <path data-name="Path 1101" d="M39.932 75.114a1.073 1.073 0 1 1 1.073-1.073 1.073 1.073 0 0 1-1.073 1.073z" transform="translate(-17.801 -31.875)" style="fill:#465a94"/>
                <path data-name="Path 1102" d="M24.156 13.542a1.073 1.073 0 1 1 1.073-1.073 1.073 1.073 0 0 1-1.073 1.073z" transform="translate(-12.554 -11.396)" style="fill:#465a94"/>
                <circle data-name="Ellipse 17" cx="1.073" cy="1.073" r="1.073" transform="translate(10.529 13.697)" style="fill:#465a94"/>
                <path data-name="Path 1103" d="M24.156 54.59a1.073 1.073 0 1 1 1.073-1.073 1.073 1.073 0 0 1-1.073 1.073z" transform="translate(-12.554 -25.049)" style="fill:#465a94"/>
                <circle data-name="Ellipse 18" cx="1.073" cy="1.073" r="1.073" transform="translate(10.529 41.092)" style="fill:#465a94"/>
                <circle data-name="Ellipse 19" cx="1.073" cy="1.073" r="1.073" transform="translate(10.529 54.79)" style="fill:#465a94"/>
                <path data-name="Path 1104" d="M8.38 13.542a1.073 1.073 0 1 1 1.073-1.073 1.073 1.073 0 0 1-1.073 1.073z" transform="translate(-7.307 -11.396)" style="fill:#465a94"/>
                <circle data-name="Ellipse 20" cx="1.073" cy="1.073" r="1.073" transform="translate(0 13.697)" style="fill:#465a94"/>
                <path data-name="Path 1105" d="M8.38 54.59a1.073 1.073 0 1 1 1.073-1.073A1.073 1.073 0 0 1 8.38 54.59z" transform="translate(-7.307 -25.049)" style="fill:#465a94"/>
                <circle data-name="Ellipse 21" cx="1.073" cy="1.073" r="1.073" transform="translate(0 41.092)" style="fill:#465a94"/>
                <circle data-name="Ellipse 22" cx="1.073" cy="1.073" r="1.073" transform="translate(0 54.79)" style="fill:#465a94"/>
                <path data-name="Path 1106" d="M8.38 116.162a1.073 1.073 0 1 1 1.073-1.073 1.073 1.073 0 0 1-1.073 1.073z" transform="translate(-7.307 -45.528)" style="fill:#465a94"/>
            </g>
            <g data-name="Group 463" transform="translate(287.236 250.228)">
                <path data-name="Path 1107" d="M438.286 482.4a.593.593 0 1 1-.593.593.593.593 0 0 1 .593-.593z" transform="translate(-437.693 -444.527)" style="fill:#f46136"/>
                <path data-name="Path 1108" d="M447.009 482.4a.593.593 0 1 1-.593.593.593.593 0 0 1 .593-.593z" transform="translate(-440.594 -444.527)" style="fill:#f46136"/>
                <circle data-name="Ellipse 23" cx=".593" cy=".593" r=".593" transform="translate(5.822 30.295)" style="fill:#f46136"/>
                <path data-name="Path 1109" d="M455.732 482.4a.593.593 0 1 1-.593.593.593.593 0 0 1 .593-.593z" transform="translate(-443.496 -444.527)" style="fill:#f46136"/>
                <circle data-name="Ellipse 24" cx=".593" cy=".593" r=".593" transform="translate(11.643 30.295)" style="fill:#f46136"/>
                <circle data-name="Ellipse 25" cx=".593" cy=".593" r=".593" transform="translate(11.643 22.721)" style="fill:#f46136"/>
                <path data-name="Path 1110" d="M464.455 482.4a.593.593 0 1 1-.594.593.593.593 0 0 1 .594-.593z" transform="translate(-446.397 -444.527)" style="fill:#f46136"/>
                <circle data-name="Ellipse 26" cx=".593" cy=".593" r=".593" transform="translate(17.465 30.295)" style="fill:#f46136"/>
                <circle data-name="Ellipse 27" cx=".593" cy=".593" r=".593" transform="translate(17.465 22.721)" style="fill:#f46136"/>
                <circle data-name="Ellipse 28" cx=".593" cy=".593" r=".593" transform="translate(17.465 15.147)" style="fill:#f46136"/>
                <path data-name="Path 1111" d="M473.177 482.4a.593.593 0 1 1-.593.593.593.593 0 0 1 .593-.593z" transform="translate(-449.298 -444.527)" style="fill:#f46136"/>
                <circle data-name="Ellipse 29" cx=".593" cy=".593" r=".593" transform="translate(23.286 30.295)" style="fill:#f46136"/>
                <circle data-name="Ellipse 30" cx=".593" cy=".593" r=".593" transform="translate(23.286 22.721)" style="fill:#f46136"/>
                <circle data-name="Ellipse 31" cx=".593" cy=".593" r=".593" transform="translate(23.286 15.147)" style="fill:#f46136"/>
                <circle data-name="Ellipse 32" cx=".593" cy=".593" r=".593" transform="translate(23.286 7.574)" style="fill:#f46136"/>
                <path data-name="Path 1112" d="M481.9 482.4a.593.593 0 1 1-.593.593.593.593 0 0 1 .593-.593z" transform="translate(-452.199 -444.527)" style="fill:#f46136"/>
                <circle data-name="Ellipse 33" cx=".593" cy=".593" r=".593" transform="translate(29.108 30.295)" style="fill:#f46136"/>
                <circle data-name="Ellipse 34" cx=".593" cy=".593" r=".593" transform="translate(29.108 22.721)" style="fill:#f46136"/>
                <circle data-name="Ellipse 35" cx=".593" cy=".593" r=".593" transform="translate(29.108 15.147)" style="fill:#f46136"/>
                <circle data-name="Ellipse 36" cx=".593" cy=".593" r=".593" transform="translate(29.108 7.574)" style="fill:#f46136"/>
                <path data-name="Path 1113" d="M481.9 425.654a.593.593 0 1 1-.593.593.593.593 0 0 1 .593-.593z" transform="translate(-452.199 -425.654)" style="fill:#f46136"/>
            </g>
            <path data-name="Path 1114" d="m43.109 257.771-5.962 6.809 5.453 6.22-5.45 6.224 5.474 6.251-5.474 6.251 5.962 6.809v-1.186l-4.912-5.603 5.524-6.308-5.474-6.251 5.474-6.251-5.465-6.241 4.85-5.538z" transform="translate(-17.232 -93.342)" style="fill:#fbf8f5"/>
            <g data-name="Group 464" style="opacity:.32">
                <path data-name="Path 1115" d="M147.726 38.422a8.6 8.6 0 1 1-6.875-10.022 8.595 8.595 0 0 1 6.875 10.022z" transform="translate(-48.342 -17.002)" style="fill:#febc10"/>
                <g data-name="Ellipse 37" transform="translate(87.293 7.03)" style="stroke-miterlimit:10;stroke:#211f1c;stroke-width:.75px;fill:none">
                    <circle cx="8.596" cy="8.596" r="8.596" style="stroke:none"/>
                    <circle cx="8.596" cy="8.596" r="8.221" style="fill:none"/>
                </g>
            </g>
            <g data-name="Group 465">
                <path data-name="Path 1116" d="M471.4 292.334a2.383 2.383 0 1 0 2.383 2.383 2.383 2.383 0 0 0-2.383-2.383zm0 3.98a1.6 1.6 0 1 1 1.6-1.6 1.6 1.6 0 0 1-1.6 1.6z" transform="translate(-160.874 -104.838)" style="fill:#465a94"/>
            </g>
            <g data-name="Group 466" style="opacity:.22">
                <path data-name="Path 1117" d="m436.787 114.638 10-13.883 8.687 13.883z" transform="translate(-150.156 -41.117)" style="fill:#afcab7"/>
                <g data-name="Path 1118" style="stroke-miterlimit:10;fill:none">
                    <path d="m446.39 110.313 10-13.883 8.687 13.883z" style="stroke:none" transform="translate(-153.35 -39.679)"/>
                    <path d="m463.722 109.563-7.376-11.79-8.492 11.79h15.868m1.354.75H446.39l10-13.883 8.686 13.883z" style="fill:#211f1c;stroke:none" transform="translate(-153.35 -39.679)"/>
                </g>
            </g>
            <path data-name="Path 1119" d="M183.034 402.121a9.546 9.546 0 0 0-9.546 9.546h19.091a9.546 9.546 0 0 0-9.545-9.546z" transform="translate(-62.58 -141.354)" style="fill:#ff941e;opacity:.32"/>
            <path data-name="Path 1120" d="M397.318 28.533a5.413 5.413 0 0 1 5.413 5.413h2.669a8.078 8.078 0 1 0-16.156 0h2.656a5.413 5.413 0 0 1 5.418-5.413z" transform="translate(-134.341 -16.21)" style="opacity:.32;fill:#465a94"/>
            <path data-name="Path 1121" d="M54.464 379.292a5.413 5.413 0 0 1 5.413-5.413v-2.665a8.078 8.078 0 1 0 0 16.156v-2.67a5.413 5.413 0 0 1-5.413-5.408z" transform="translate(-22.105 -131.074)" style="opacity:.32;fill:#465a94"/>
        </g>
        <g data-name="Group 488">
            <g data-name="Group 468">
                <path data-name="Path 1122" d="M219.338 96.034v44.007h-19.331a3.11 3.11 0 0 1-3.107-3.111V99.141a3.106 3.106 0 0 1 3.107-3.107z" transform="translate(-70.367 -39.548)" style="fill:#1d253d"/>
                <path data-name="Path 1123" d="M305.784 94.167c-1.988 18.711-12.614 23.171-12.614 23.171h-62.649V73.331c17.58-3.38 25.952-25.031 24.14-35.888a23.213 23.213 0 0 0 .013-6.637 4.289 4.289 0 0 1 4.906-2.969c12.087 1.894 12.777 26.972 12.682 35.147a2.675 2.675 0 0 0 2.489 2.7 137.287 137.287 0 0 1 23.518 3.535c5.793 1.517 8.2 3.034 8.908 6.35.754 3.499-.377 8.996-1.393 18.598z" transform="translate(-81.55 -16.844)" style="fill:#fea30a"/>
            </g>
            <g data-name="Group 469">
                <path data-name="Path 1124" d="M219.338 96.034v37.306h-19.331a3.109 3.109 0 0 1-3.107-3.106V99.141a3.106 3.106 0 0 1 3.107-3.107z" transform="translate(-70.367 -39.548)" style="fill:#465a94"/>
                <path data-name="Path 1125" d="M307.177 75.544c-.308 3.059-.866 6.928-1.393 11.894-1.988 18.711-12.614 23.171-12.614 23.171h-62.649V73.3c8.763-1.685 15.584-8.165 19.718-15.821 2.982-5.523 3.914-11.753 4.309-17.939.231-3.615-1.177-13 5.031-11.734 12.087 1.894 12.777 26.972 12.682 35.147a2.675 2.675 0 0 0 2.489 2.7 137.286 137.286 0 0 1 23.518 3.535c5.794 1.523 8.198 3.04 8.909 6.356z" transform="translate(-81.55 -16.817)" style="fill:#feb12f"/>
            </g>
            <path data-name="Path 1126" d="M306.95 161.972h9.43l-4.556 4.975v5.392h-6.7v-4.658a7.588 7.588 0 0 1 .661-3.1z" transform="translate(-106.363 -61.479)" style="fill:#bf6d3e"/>
            <g data-name="Group 470">
                <path data-name="Path 1127" d="M305.532 163.913a2.981 2.981 0 0 0-.189-5.445 4.381 4.381 0 0 0-3.677-3.611 32.592 32.592 0 0 1 2.5 9.495z" transform="translate(-105.213 -59.113)" style="fill:#bf6d3e"/>
                <path data-name="Path 1128" d="M305.086 156.19a2.015 2.015 0 0 1 1.038 1.608 2.581 2.581 0 0 0 .4 1.059 4.1 4.1 0 0 0 .964.665 2.609 2.609 0 0 1 1.163 1.872 5.549 5.549 0 0 1-.513 2.483c-.1.257-.475.055-.379-.2a4.838 4.838 0 0 0 .452-2.355 2.394 2.394 0 0 0-1.346-1.678 2.129 2.129 0 0 1-.747-.618 2.637 2.637 0 0 1-.346-.859c-.145-.585-.238-1.355-.885-1.6-.258-.094-.056-.472.199-.377z" transform="translate(-106.244 -59.551)" style="fill:#80410e"/>
            </g>
            <path data-name="Path 1129" d="M211.619 161.972h-9.43l4.556 4.975v5.392h6.7v-4.658a7.6 7.6 0 0 0-.661-3.1z" transform="translate(-72.126 -61.479)" style="fill:#bf6d3e"/>
            <g data-name="Group 471">
                <path data-name="Path 1130" d="M276.412 215.051a74.808 74.808 0 0 0 15.2-13.106 273.138 273.138 0 0 0 3.127-27.319 46.422 46.422 0 0 1 8.585-.168 153.326 153.326 0 0 1 2.052 36.364c-7.571 7.484-15.651 15.839-23.222 23.323z" transform="translate(-96.813 -65.589)" style="fill:#ff6969"/>
                <path data-name="Path 1131" d="M306.734 219.806a11.97 11.97 0 0 0 1.132-1.955q-.053 3.718-.3 7.448c-7.571 7.484-15.651 15.839-23.222 23.323l-1.333-4.437c8.381-7.545 16.659-15.254 23.723-24.379z" transform="translate(-99.008 -80.065)" style="fill:#e03232"/>
                <path data-name="Path 1132" d="m304.8 181.145 5.728.137c.274.007.295.434.019.428l-5.728-.136c-.271-.007-.292-.435-.019-.429z" transform="translate(-106.191 -67.857)" style="fill:#1d253d"/>
            </g>
            <g data-name="Group 472">
                <path data-name="Path 1133" d="M233.057 215.051a74.791 74.791 0 0 1-15.2-13.106 272.924 272.924 0 0 1-3.127-27.319 46.422 46.422 0 0 0-8.585-.168 153.329 153.329 0 0 0-2.052 36.364c7.571 7.484 15.651 15.839 23.222 23.323z" transform="translate(-72.656 -65.589)" style="fill:#ff6969"/>
                <path data-name="Path 1134" d="M227.682 240.968q.191 2.149.309 4.305l-.67 2.231c-7.571-7.484-15.651-15.839-23.222-23.323q-.327-4.856-.314-9.69c4.154 11.096 13.565 19.589 23.897 26.477z" transform="translate(-72.657 -78.948)" style="fill:#e03232"/>
                <path data-name="Path 1135" d="m207.928 181.443 7.584-.384a.214.214 0 0 1 .019.428l-7.584.384a.214.214 0 0 1-.019-.428z" transform="translate(-73.97 -67.828)" style="fill:#1d253d"/>
            </g>
            <g data-name="Group 477">
                <g data-name="Group 476">
                    <g data-name="Group 473">
                        <path data-name="Path 1136" d="M234.108 435.35c0 1.048.009 2.068.022 3.047h6.083l.34-3.047z" transform="translate(-82.743 -152.407)" style="fill:#001e4a"/>
                        <path data-name="Path 1137" d="M279.231 435.35c0 1.048.009 2.068.023 3.047h6.082l.34-3.047z" transform="translate(-97.751 -152.407)" style="fill:#001e4a"/>
                        <path data-name="Path 1138" d="M280.011 311.121c-16.115 1.773-18.448 10.993-18.448 10.993l6.508 38.431 3.416 35.2h10.843c3.27-44.015-2.319-84.624-2.319-84.624z" transform="translate(-91.874 -111.087)" style="fill:#ffc005"/>
                        <path data-name="Path 1140" d="m254.788 331.693-13.074 69.9h-11.083c-.085-20.984 2.132-56.8 3.273-72.879a59.976 59.976 0 0 0 20.884 2.979z" transform="translate(-81.585 -116.94)" style="fill:#ffd140"/>
                        <path data-name="Path 1141" d="M235.536 323.789c.392-5.53.657-8.934.657-8.934l29.051-.956c-.84 4.018-8.008 8.611-8.008 8.611l-.816 4.255a59.978 59.978 0 0 1-20.884-2.976z" transform="translate(-83.218 -112.011)" style="fill:#ffac27"/>
                        <path data-name="Path 1142" d="M264.133 317.012a10.337 10.337 0 0 0 2.992-4.605l-27.194-1.286s-.221 2.923-.324 4.138a74.617 74.617 0 0 0 24.526 1.753z" transform="translate(-84.572 -111.087)" style="fill:#1d253d"/>
                    </g>
                    <g data-name="Group 474">
                        <path data-name="Path 1143" d="m238.185 439.135-7.118-.2a16.556 16.556 0 0 0-4.09 7.439h12.853a30.313 30.313 0 0 0-1.645-7.239z" transform="translate(-80.371 -153.6)" style="fill:#191933"/>
                        <path data-name="Path 1144" d="M146.605 292.778c-.066.266-.134.532-.187.8a.681.681 0 0 0 .663.818h11.785a.677.677 0 0 0 .677-.725c-.023-.3-.053-.6-.083-.893z"/>
                    </g>
                    <g data-name="Group 475">
                        <path data-name="Path 1145" d="m277.835 439.135 7.119-.2c1.984 2.064 13.93 4.662 14.622 7.439h-23.385a30.31 30.31 0 0 1 1.644-7.239z" transform="translate(-96.74 -153.6)" style="fill:#191933"/>
                        <path data-name="Path 1146" d="M202.836 292.778c.066.266.134.532.187.8a.681.681 0 0 1-.663.818h-22.316a.678.678 0 0 1-.677-.725c.024-.3.053-.6.084-.893z"/>
                    </g>
                </g>
                <path data-name="Path 1147" d="M240.236 384.561c-.883-1.517-1.806-2.994-2.537-4.594a43.187 43.187 0 0 1-1.8-4.99.167.167 0 0 0-.322.088 22.874 22.874 0 0 0 1.678 5.095 21.06 21.06 0 0 0 2.669 4.644c.142.179.423-.051.312-.243z" transform="translate(-83.23 -132.287)" style="fill:#ffac27"/>
                <path data-name="Path 1148" d="M233.183 433.8h7.065c.274 0 .295.428.019.428H233.2c-.273-.003-.294-.428-.017-.428z" transform="translate(-82.37 -151.89)" style="fill:#1d253d"/>
            </g>
            <g data-name="Group 480">
                <path data-name="Path 1149" d="M268.576 240.14a4.841 4.841 0 0 0-3.354-4.233 32.9 32.9 0 0 0-13.3-1.668 56.654 56.654 0 0 0-12.2 2.332 5.011 5.011 0 0 0-3.817 5.466 190.066 190.066 0 0 1 2.263 43.214c10.649 3.089 21.272 3.99 31.339.473.337-14.708-.241-30.852-.931-45.584z" transform="translate(-83.318 -85.487)" style="fill:#fff"/>
                <path data-name="Path 1150" d="M259.3 238.943a16.641 16.641 0 0 0-3.256 2.165c-.43-.8-.83-1.62-1.245-2.428q-.341-.666-.685-1.329a7.753 7.753 0 0 0-.727-1.3c-.125-.157-.368.014-.322.187a7.457 7.457 0 0 0 .6 1.311q.344.694.693 1.386c.456.906.94 1.8 1.367 2.722a.27.27 0 0 0 .418.054 19.985 19.985 0 0 1 3.4-2.338c.293-.152.042-.573-.243-.43z" transform="translate(-89.046 -86.098)" style="fill:#e03232"/>
                <path data-name="Path 1151" d="M266.658 239.245q-.024-.582-.033-1.164a2.6 2.6 0 0 0-.087-1.119.177.177 0 0 0-.3 0 2.269 2.269 0 0 0-.087 1.074q.007.6.031 1.209c.027.645.072 1.289.129 1.932l-1.6-.91c-.327-.186-.656-.366-.986-.547a3.487 3.487 0 0 0-1.018-.467.132.132 0 0 0-.128.218 3.475 3.475 0 0 0 .918.639c.323.192.646.383.972.57q1 .573 2 1.142a.243.243 0 0 0 .363-.209q-.123-1.181-.174-2.368z" transform="translate(-92.2 -86.393)" style="fill:#e03232"/>
                <path data-name="Path 1152" d="m261.842 240.765-1.513 1.2.756 1.183-.14 40.268 3 1.564 2.551-1.564-3.52-40.038.434-1.585z" transform="translate(-91.464 -87.686)" style="fill:#e03232"/>
                <path data-name="Path 1153" d="M234.06 244.957c-.511-3.438.9-7.164 3.671-8.172a27.687 27.687 0 0 1 7.01-1.633c1.878 7.826 9.606 23.821 9.606 23.821s6.011-18.3 2.475-24.614a21.807 21.807 0 0 1 8.826 1.675c2.13 1.086 3.466 4.59 3.625 7.307.986 16.795 4.125 34.252 5.446 51.287-1.638.767-3.785.785-5.55.944-2.876.259-5.764.39-8.65.5-9.358.346-18.608.046-27.454-3.355 1.284-15.958 3.355-31.868.995-47.76z" transform="translate(-82.396 -85.551)" style="fill:#ff6969"/>
                <path data-name="Path 1154" d="M237.421 253.018c1.349 15.171.043 30.605-2.87 45.68-.5-.172-.992-.348-1.486-.538 1.275-15.849 3.325-31.653 1.038-47.44q1.64 1.18 3.318 2.298z" transform="translate(-82.396 -90.997)" style="fill:#e03232"/>
                <g data-name="Group 478">
                    <path data-name="Path 1155" d="m273.054 250.81 3.173-1.086.793-.272a4.385 4.385 0 0 0 .7-.257c.457-.253.279-.793.149-1.192q-1.053-3.223-2.12-6.44a.214.214 0 0 1 .408-.132l1.8 5.476c.139.426.3.85.413 1.285a1.393 1.393 0 0 1-.029.968 1.24 1.24 0 0 1-.759.551c-.44.155-.884.3-1.325.454l-3.074 1.052a.214.214 0 0 1-.129-.407z" transform="translate(-95.649 -87.86)" style="fill:#fff"/>
                    <path data-name="Path 1156" d="m273.357 255.69 3.581 3.714c.191.2-.1.515-.29.316l-3.581-3.714c-.19-.198.098-.515.29-.316z" transform="translate(-95.68 -92.629)" style="fill:#fff"/>
                    <path data-name="Path 1157" d="m266.248 271.441 8.123-10.19c.172-.216.487.075.316.29l-8.124 10.19c-.171.215-.486-.076-.315-.29z" transform="translate(-93.416 -94.475)" style="fill:#fff"/>
                </g>
                <g data-name="Group 479">
                    <path data-name="Path 1158" d="m250.721 252.182-3.294-.634-.823-.159a4.384 4.384 0 0 1-.731-.157c-.487-.187-.386-.747-.313-1.16l1.2-6.672a.214.214 0 0 0-.422-.074l-1.02 5.674c-.079.44-.182.884-.23 1.329a1.39 1.39 0 0 0 .164.954 1.232 1.232 0 0 0 .829.44c.458.092.917.177 1.376.265l3.19.615a.215.215 0 0 0 .074-.421z" transform="translate(-86.389 -88.481)" style="fill:#fff"/>
                    <path data-name="Path 1159" d="m251.624 256.86-3.029 4.176c-.162.223.168.5.331.273l3.029-4.176c.161-.223-.169-.497-.331-.273z" transform="translate(-87.547 -93.011)" style="fill:#fff"/>
                    <path data-name="Path 1160" d="m258.358 272.03-9.462-8.96c-.2-.19-.472.142-.273.33l9.462 8.961c.201.19.472-.141.273-.331z" transform="translate(-87.547 -95.086)" style="fill:#fff"/>
                </g>
                <path data-name="Path 1161" d="M265.048 272.215q.458 7.192.715 14.395t.31 14.409q.03 4.056 0 8.113c0 .275-.43.3-.428.019q.06-7.207-.082-14.412t-.487-14.4q-.194-4.052-.453-8.1a.214.214 0 0 1 .425-.024z" transform="translate(-92.891 -98.081)" style="fill:#fff"/>
                <path data-name="Path 1162" d="M276.271 304.816a12.476 12.476 0 0 0 7.674-.31c.259-.1.39.312.132.408a12.876 12.876 0 0 1-7.9.32c-.267-.074-.177-.493.094-.418z" transform="translate(-96.682 -108.882)" style="fill:#fff"/>
                <path data-name="Path 1163" d="M241.758 305.659a12.473 12.473 0 0 0 7.674-.31c.259-.1.39.312.132.408a12.879 12.879 0 0 1-7.9.32c-.264-.077-.172-.492.094-.418z" transform="translate(-85.203 -109.163)" style="fill:#fff"/>
            </g>
            <g data-name="Group 486">
                <path data-name="Path 1164" d="M266.314 208.393a11.774 11.774 0 0 0-.519-7.948 2.636 2.636 0 0 0-.283-1.854 3.477 3.477 0 0 0-1.337-1.28 3.178 3.178 0 0 0-2.425-.356 2.092 2.092 0 0 0-1.517 1.809 9.8 9.8 0 0 0-1.828-.982 3.593 3.593 0 0 0-2.138-.133 2.181 2.181 0 0 0-1.522 1.423 1.579 1.579 0 0 0 .782 1.837 2.375 2.375 0 0 0-2.537-.44 3.362 3.362 0 0 0-1.657 1.825 3.476 3.476 0 0 0-.28 1.96 2.132 2.132 0 0 0 1.136 1.564 2.9 2.9 0 0 0-1.284 3.233 7.4 7.4 0 0 0 1.871 3.318 15.656 15.656 0 0 1 2.332 3.054z" transform="translate(-88.306 -73.079)" style="fill:#2b2b47"/>
                <path data-name="Path 1165" d="M266.62 209a12.206 12.206 0 0 0-.462-7.65 2.72 2.72 0 0 0-.251-1.784 3.216 3.216 0 0 0-1.189-1.232 2.64 2.64 0 0 0-2.156-.343 1.978 1.978 0 0 0-1.348 1.741 8.478 8.478 0 0 0-1.624-.944 2.964 2.964 0 0 0-1.9-.129 2.01 2.01 0 0 0-1.353 1.369 1.571 1.571 0 0 0 .695 1.769 1.989 1.989 0 0 0-2.255-.423 3.154 3.154 0 0 0-1.472 1.757 3.6 3.6 0 0 0-.249 1.887 2.048 2.048 0 0 0 1.009 1.5 2.9 2.9 0 0 0-1.141 3.112 7.3 7.3 0 0 0 1.663 3.193 15.013 15.013 0 0 1 2.072 2.939z" transform="translate(-88.98 -73.427)" style="fill:#2b2b47"/>
                <g data-name="Group 485">
                    <g data-name="Group 484">
                        <g data-name="Group 483">
                            <g data-name="Group 481">
                                <path data-name="Path 1166" d="M255.591 219.488a51.673 51.673 0 0 1-.238 10.4 1.893 1.893 0 0 0 .785 1.791 7.75 7.75 0 0 0 5.521 1.321 1.873 1.873 0 0 0 1.568-2.014 61.92 61.92 0 0 1-.189-6.687 15.01 15.01 0 0 0-7.447-4.811z" transform="translate(-89.804 -80.61)" style="fill:#bf6d3e"/>
                                <path data-name="Path 1167" d="M263.164 224.3a15.01 15.01 0 0 0-7.447-4.812q.107 1.368.139 2.739a10.629 10.629 0 0 0 7.4 7.19 61.692 61.692 0 0 1-.092-5.117z" transform="translate(-89.93 -80.61)" style="fill:#80410e"/>
                            </g>
                            <g data-name="Group 482">
                                <path data-name="Path 1168" d="M266.853 209.372c.645 4.837-.365 13.122-4.017 13.5-4.294.442-6.93-3.379-7.887-6.9a1.043 1.043 0 0 1-.811.264 2.02 2.02 0 0 1-1.188-.85 2.382 2.382 0 0 1-.412-2.423 1.3 1.3 0 0 1 2.346-.027 13.6 13.6 0 0 1 1.143-5.033 1.935 1.935 0 0 1 1.166-1.159 13.674 13.674 0 0 1 8.049-.163 1.935 1.935 0 0 1 1.287 1.328 10.68 10.68 0 0 1 .324 1.463z" transform="translate(-88.806 -76.141)" style="fill:#bf6d3e"/>
                                <path data-name="Path 1169" d="M264.333 211.229c-.779-.988-2.92-.306-3.709.328-.144.116-.318.264-.3.47a.246.246 0 0 0 .174.228c.242.069.472-.131.674-.237a3.409 3.409 0 0 1 1.951-.374 4.194 4.194 0 0 0 1.061.15c.282-.041.286-.394.149-.565z" transform="translate(-91.462 -77.697)" style="fill:#3b1411"/>
                                <path data-name="Path 1170" d="M264.172 213.928a.43.43 0 0 0-.251-.252.361.361 0 0 0-.184-.041l-.126.017a.468.468 0 0 0-.21.123l-.075.1a.473.473 0 0 0-.065.24v.051a.359.359 0 0 0 .041.183.354.354 0 0 0 .1.153.347.347 0 0 0 .153.1.353.353 0 0 0 .183.041l.127-.017a.467.467 0 0 0 .21-.122l.074-.1a.474.474 0 0 0 .065-.24v-.051a.359.359 0 0 0-.042-.185z" transform="translate(-92.44 -78.663)" style="fill:#3b1411"/>
                                <path data-name="Path 1171" d="M271.967 214.369a.359.359 0 0 0-.1-.153.537.537 0 0 0-.336-.139l-.126.017a.478.478 0 0 0-.21.122l-.074.1a.472.472 0 0 0-.065.24v.051a.359.359 0 0 0 .041.183.488.488 0 0 0 .434.292l.126-.017a.473.473 0 0 0 .21-.123l.074-.1a.473.473 0 0 0 .065-.24v-.051a.352.352 0 0 0-.039-.182z" transform="translate(-95.033 -78.81)" style="fill:#3b1411"/>
                                <path data-name="Path 1172" d="M272.662 212.143a1.439 1.439 0 0 0-.962-.643 2.248 2.248 0 0 0-1.125-.021.355.355 0 0 0-.255.39c.039.289.284.3.513.3a2.294 2.294 0 0 1 .89.165c.192.082 1.2.586 1-.051a.9.9 0 0 0-.061-.14z" transform="translate(-94.786 -77.925)" style="fill:#3b1411"/>
                                <path data-name="Path 1173" d="M266.224 226.6a1.651 1.651 0 0 0-.462 0 3.089 3.089 0 0 1-.407-.025 3.97 3.97 0 0 1-.422-.085 1.349 1.349 0 0 0-.453-.092.186.186 0 0 0-.13.312.867.867 0 0 0 .44.242 2.671 2.671 0 0 0 .461.112 3.846 3.846 0 0 0 .5.045 1.058 1.058 0 0 0 .535-.069.243.243 0 0 0-.062-.44z" transform="translate(-92.786 -82.905)" style="fill:#804e26"/>
                                <path data-name="Path 1174" d="M254.717 218.216a.3.3 0 0 1-.393-.2.283.283 0 0 1 .083-.231.279.279 0 0 1 .21-.107.191.191 0 0 0 .183-.24 1.167 1.167 0 0 0-1.135-.97.734.734 0 0 0-.607.415.533.533 0 0 0-.031.356c.017.069.1.248.2.159.058-.053.039-.131.059-.2a.7.7 0 0 1 .093-.2.4.4 0 0 1 .384-.161.77.77 0 0 1 .6.525.624.624 0 0 0-.358.725.656.656 0 0 0 .8.45c.201-.067.112-.389-.088-.321z" transform="translate(-89.03 -79.604)" style="fill:#804e26"/>
                            </g>
                        </g>
                        <path data-name="Path 1175" d="M269.84 217.459a6.989 6.989 0 0 0-.739-.515.726.726 0 0 1-.346-.737c.023-.226-.28-.253-.386-.1-.323.452.117 1.015.478 1.277a5.077 5.077 0 0 1 .656.461 1.513 1.513 0 0 1 .367.61 1.452 1.452 0 0 1-.235 1.357 2.094 2.094 0 0 1-1.258.646.159.159 0 0 0 0 .3 1.631 1.631 0 0 0 1.448-.448 1.874 1.874 0 0 0 .629-1.43 2.006 2.006 0 0 0-.614-1.421z" transform="translate(-94.101 -79.453)" style="fill:#80410e"/>
                    </g>
                    <path data-name="Path 1176" d="M266.137 224.326a3.659 3.659 0 0 1-4.086-1.487.215.215 0 0 1 .36-.234 3.22 3.22 0 0 0 3.589 1.314c.269-.078.4.329.137.407z" transform="translate(-92.025 -81.615)" style="fill:#3b1411"/>
                </g>
            </g>
            <path data-name="Path 1177" d="M287.227 246.856q.5 9.605 1.743 19.153.349 2.673.758 5.337c.042.272-.386.289-.428.019q-1.457-9.508-2.165-19.111-.2-2.688-.336-5.38a.214.214 0 0 1 .428-.018z" transform="translate(-100.268 -89.646)" style="fill:#1d253d"/>
            <g data-name="Group 487">
                <path data-name="Path 1178" d="M215.885 163.913a2.981 2.981 0 0 1 .189-5.445 4.382 4.382 0 0 1 3.677-3.611 32.613 32.613 0 0 0-2.5 9.495z" transform="translate(-76.124 -59.113)" style="fill:#bf6d3e"/>
                <path data-name="Path 1179" d="M217.149 156.19a2.014 2.014 0 0 0-1.037 1.608 2.592 2.592 0 0 1-.4 1.059 4.089 4.089 0 0 1-.964.665 2.608 2.608 0 0 0-1.162 1.872 5.557 5.557 0 0 0 .512 2.483c.1.257.475.055.379-.2a4.838 4.838 0 0 1-.452-2.355 2.393 2.393 0 0 1 1.345-1.678 2.117 2.117 0 0 0 .747-.618 2.609 2.609 0 0 0 .346-.859c.145-.585.239-1.355.885-1.6.259-.094.057-.472-.199-.377z" transform="translate(-75.912 -59.551)" style="fill:#80410e"/>
            </g>
        </g>
        <g data-name="Group 498">
            <path data-name="Path 1180" d="M371.7 211.112a8.629 8.629 0 0 1 6.021 6.785 5.042 5.042 0 0 0 .564 2.114c.441.645 1.277 1.04 1.451 1.8.184.811-.485 1.71-.1 2.447s1.6.752 1.981 1.511c.416.84-.529 1.885-.148 2.742.348.78 1.452.763 2.184 1.2a2.334 2.334 0 0 1 1.014 2.022 5.141 5.141 0 0 1-.657 2.251 15.807 15.807 0 0 1-10.979 7.949 23.6 23.6 0 0 1-13.712-1.7 6.639 6.639 0 0 1-2.755-1.817 2.635 2.635 0 0 1-.26-3.093 6.4 6.4 0 0 0 .783-.974c.625-1.333-1.361-2.688-1.067-4.131.159-.781.922-1.257 1.575-1.715s1.321-1.154 1.153-1.933c-.083-.384-.362-.7-.452-1.083-.234-.991.8-1.754 1.455-2.533 1.165-1.39 1.234-3.355 1.46-5.154a8.2 8.2 0 0 1 10.489-6.688z" transform="translate(-123.256 -77.714)" style="fill:#2b2b47"/>
            <path data-name="Path 1181" d="M372.029 213.771a8.139 8.139 0 0 1 5.679 6.4 4.759 4.759 0 0 0 .533 1.993c.416.608 1.205.981 1.368 1.7.174.765-.457 1.613-.094 2.308s1.514.709 1.869 1.426c.393.793-.5 1.779-.139 2.587.328.735 1.37.719 2.06 1.134a2.2 2.2 0 0 1 .956 1.907 4.841 4.841 0 0 1-.62 2.124 14.912 14.912 0 0 1-10.357 7.5 22.265 22.265 0 0 1-12.935-1.6 6.253 6.253 0 0 1-2.6-1.714 2.486 2.486 0 0 1-.246-2.917 5.979 5.979 0 0 0 .739-.918c.589-1.258-1.285-2.536-1.006-3.9.15-.737.87-1.187 1.486-1.618s1.247-1.089 1.087-1.824c-.079-.362-.341-.661-.426-1.022-.221-.934.755-1.654 1.372-2.39 1.1-1.311 1.164-3.165 1.378-4.862a7.731 7.731 0 0 1 9.896-6.314z" transform="translate(-123.662 -78.605)" style="fill:#2b2b47"/>
            <g data-name="Group 489">
                <path data-name="Path 1182" d="M407.934 228.476a1.626 1.626 0 0 0-.806-1.348 4.292 4.292 0 0 0-1.546-.522 27.322 27.322 0 0 0-4.776-.475 1.727 1.727 0 0 0-1.7 1.4 8.815 8.815 0 0 0-.182 1.227c-1.087.745-1.046 2.431-.862 3.737-2.533 2.237-6.673 5.409-9.949 6.237s-6.776 2.2-8.352 5.187c-1.093 2.073-1.041 4.538-.942 6.88.072 1.7.246 3.633 2.488 4.192a4.991 4.991 0 0 0 2.154.011c4.587-.887 7.516-4.855 11.506-7.252 3.809-2.29 7.691-4.737 10.246-8.374s5.149-7.176 2.721-10.9z" transform="translate(-130.857 -82.819)" style="fill:#ff941e"/>
                <path data-name="Path 1183" d="M408.334 234.228a5.84 5.84 0 0 0-.4-5.752 1.626 1.626 0 0 0-.806-1.348 4.292 4.292 0 0 0-1.546-.522 27.322 27.322 0 0 0-4.776-.475 1.727 1.727 0 0 0-1.7 1.4 8.815 8.815 0 0 0-.182 1.227c-1.087.745-1.046 2.431-.862 3.737-2.533 2.237-6.673 5.409-9.949 6.237s-6.776 2.2-8.352 5.187c-1.093 2.073-1.041 4.538-.942 6.88.016.381.039.773.087 1.159 10.769-3.558 21.761-9.158 29.428-17.73z" transform="translate(-130.857 -82.819)" style="fill:#ffd100"/>
                <path data-name="Path 1184" d="M378.97 255.989a3.109 3.109 0 0 0 2.4 3.033 4.991 4.991 0 0 0 2.154.011c4.587-.887 7.516-4.855 11.506-7.252 3.81-2.29 7.691-4.737 10.246-8.374a27.49 27.49 0 0 0 3.125-5.144c-7.666 8.572-18.658 14.17-29.431 17.726z" transform="translate(-130.925 -86.854)" style="fill:#ffc005"/>
                <path data-name="Path 1185" d="M410.3 205.006 409.914 220a2.088 2.088 0 0 0 1.907 2.148 6.268 6.268 0 0 0 3.209-.608 2.084 2.084 0 0 0 1.139-2.191l-2.182-14.613a13.044 13.044 0 0 0-3.687.27z" transform="translate(-141.217 -75.692)" style="fill:#ffc9b9"/>
                <path data-name="Path 1186" d="M412.865 239.117a6.508 6.508 0 0 1-4.293-2.648c-.16-.224-.474.068-.316.29a6.92 6.92 0 0 0 4.59 2.786c.273.041.29-.388.019-.428z" transform="translate(-140.651 -86.23)" style="fill:#ffc005"/>
                <path data-name="Path 1187" d="M414.841 232.1a7.2 7.2 0 0 1-3.706-1.008c-.237-.141-.47.219-.232.36a7.639 7.639 0 0 0 3.92 1.077c.277-.007.295-.434.018-.429z" transform="translate(-141.513 -84.456)" style="fill:#ffc005"/>
            </g>
            <path data-name="Path 1188" d="M371.458 242.663a14.077 14.077 0 0 0-8.717.5c-1.289.507-2.672 1.49-2.62 2.874.045 1.2 1.159 2.06 2.216 2.631a18.662 18.662 0 0 0 12.921 1.741c2.106-.486 4.2-2.231 2.313-4.278a13.113 13.113 0 0 0-6.113-3.468z" transform="translate(-124.655 -88.163)" style="fill:#ffd100"/>
            <path data-name="Path 1189" d="M353.787 250.723c-3.059.488-5.535 2.977-7.331 5.708s-3.129 5.817-5.1 8.4c-1.618 2.125-3.643 3.878-5.091 6.143s-2.244 5.335-1.068 7.779a6.744 6.744 0 0 0 6.139 3.434 5.864 5.864 0 0 0 4.787-1.941 6.149 6.149 0 0 0 1.132-3.989 9.472 9.472 0 0 0-.071-.859 5.358 5.358 0 0 1 1.53-4.4 9.608 9.608 0 0 0 .945-1.143 29.89 29.89 0 0 0 4.768-9.051c.951-3.334 1-7.074-.64-10.081z" transform="translate(-116.177 -90.999)" style="fill:#ff941e"/>
            <path data-name="Path 1190" d="M354.149 261.676c.1-.287.195-.573.278-.867.95-3.339 1-7.079-.641-10.086-3.059.488-5.535 2.977-7.331 5.708s-3.129 5.817-5.1 8.4c-1.618 2.124-3.643 3.878-5.091 6.143s-2.244 5.335-1.068 7.779a6.744 6.744 0 0 0 6.139 3.434 5.864 5.864 0 0 0 4.787-1.941 6.149 6.149 0 0 0 1.132-3.989 9.472 9.472 0 0 0-.071-.859c-.008-.064-.007-.128-.012-.192a20.293 20.293 0 0 0-2.136-3.582 42.746 42.746 0 0 0 9.114-9.948z" transform="translate(-116.177 -90.999)" style="fill:#ffd100"/>
            <path data-name="Path 1191" d="M350.223 277.088a20.3 20.3 0 0 1 2.136 3.582 5.364 5.364 0 0 1 1.542-4.207 9.607 9.607 0 0 0 .945-1.143 31.62 31.62 0 0 0 4.49-8.184 42.748 42.748 0 0 1-9.113 9.952z" transform="translate(-121.363 -96.457)" style="fill:#ffc005"/>
            <path data-name="Path 1192" d="M372.639 317.891c1.649-2 3.028-4.048 3.274-5.561l-22.055-4.068c-.69 1.795-1.717 3.619-2.246 5.461 6.638 2.484 14.062 4.258 21.027 4.168z" transform="translate(-121.825 -110.137)" style="fill:#1d253d"/>
            <g data-name="Group 492">
                <g data-name="Group 490">
                    <path data-name="Path 1193" d="m377.82 443.913 4.575-.125c1.275 1.327 8.953 3 9.4 4.781h-15.03a19.475 19.475 0 0 1 1.055-4.656z" transform="translate(-130.191 -155.214)" style="fill:#fff"/>
                    <path data-name="Path 1194" d="M391.765 450.951c.043.172.087.342.121.515a.438.438 0 0 1-.426.526h-14.344a.435.435 0 0 1-.435-.467c.015-.192.034-.382.054-.574z" transform="translate(-130.163 -157.596)" style="fill:#465a94"/>
                </g>
                <path data-name="Path 1195" d="M386.767 312.219c-6.64 2.485-9.713 1.518-16.678 1.428-.609 3.93 1.826 12.319 1.826 12.319l.282 6.144h17.017a76.685 76.685 0 0 0-2.447-19.891z" transform="translate(-127.939 -111.453)" style="fill:#1d253d"/>
                <path data-name="Path 1196" d="m373.3 342.023.2 2.918 16.641.191a18.878 18.878 0 0 0 .18-3.109z" transform="translate(-129.038 -121.366)" style="fill:#006cb0"/>
                <g data-name="Group 491">
                    <path data-name="Path 1197" d="m363.425 443.913-4.575-.125c-1.275 1.327-3.383 3-3.828 4.781h9.46a19.472 19.472 0 0 0-1.057-4.656z" transform="translate(-122.959 -155.214)" style="fill:#fff"/>
                    <path data-name="Path 1198" d="M354.958 450.951c-.042.172-.086.342-.12.515a.438.438 0 0 0 .426.526h8.773a.436.436 0 0 0 .435-.467 22.258 22.258 0 0 0-.054-.574z" transform="translate(-122.895 -157.596)" style="fill:#465a94"/>
                </g>
                <path data-name="Path 1199" d="M364.791 327.371a72.98 72.98 0 0 0 6.544-6.759c-6.965.089-14.388-1.684-21.027-4.169a72.236 72.236 0 0 0-2.614 17.071h16.815z" transform="translate(-120.523 -112.858)" style="fill:#465a94"/>
                <path data-name="Path 1200" d="M347.654 342.023a14.167 14.167 0 0 0 .013 3.109h16.8v-3.109z" transform="translate(-120.483 -121.366)" style="fill:#0081c9"/>
            </g>
            <path data-name="Path 1201" d="M378.627 275.649c.027-8.161.886-14.786 1.214-22.944a2.428 2.428 0 0 0-1.024-2.317c-11.663-5.954-20.28-1.128-22.178.249a2.842 2.842 0 0 0-1.023 3.143c2.121 6.772 1.943 13.037.815 20.04-.882 5.47-6.773 11.9-5.29 18.959 9.39 4.207 20.642 3.789 30.939 1.827 2.734-4.906-3.47-14.506-3.453-18.957z" transform="translate(-121.589 -89.922)" style="fill:#ffd100"/>
            <g data-name="Group 493">
                <path data-name="Path 1202" d="M371.751 232.276a74.554 74.554 0 0 1 .583 10.231 2.309 2.309 0 0 0 .653 1.721 3.993 3.993 0 0 0 3.787 1.026 1.835 1.835 0 0 0 .9-2.054 88.028 88.028 0 0 1-.6-6.56 10.657 10.657 0 0 0-5.323-4.364z" transform="translate(-128.524 -84.863)" style="fill:#ffc9b9"/>
                <path data-name="Path 1203" d="M377.075 236.641a10.657 10.657 0 0 0-5.324-4.365q.169 1.338.289 2.684c1.375 2.738 3.33 5.46 5.459 6.7a92.054 92.054 0 0 1-.424-5.019z" transform="translate(-128.524 -84.863)" style="fill:#ffab90"/>
            </g>
            <path data-name="Path 1204" d="M379.7 315.835a38.973 38.973 0 0 1-9.6 1.5 39.5 39.5 0 0 1-9.674-.9 38.947 38.947 0 0 1-5.27-1.56c-.259-.1-.39.312-.132.408a39.446 39.446 0 0 0 9.516 2.258 39.933 39.933 0 0 0 9.829-.143 38.952 38.952 0 0 0 5.423-1.153c.266-.068.173-.487-.092-.41z" transform="translate(-122.915 -112.334)" style="fill:#ffc005"/>
            <g data-name="Group 495">
                <g data-name="Group 494">
                    <path data-name="Path 1205" d="M379.051 221.11c1.194 5.268-.175 11.4-1.566 11.616-4.608.713-7.673-3.592-7.7-3.646a2.6 2.6 0 0 1-1.066.506 1.985 1.985 0 0 1-1.334-.537c-.571-.525-1.234-1.4-.958-2.223a1.576 1.576 0 0 1 2.585-.589c1.4-2.722.19-4.137.132-6.115a11.871 11.871 0 0 1 8.193-2.345c.488.035 1.603 2.846 1.714 3.333z" transform="translate(-126.73 -80.028)" style="fill:#ffc9b9"/>
                    <path data-name="Path 1206" d="M376.966 226.235a.425.425 0 0 0-.3-.182.355.355 0 0 0-.185 0l-.117.046a.471.471 0 0 0-.172.166l-.049.109a.462.462 0 0 0-.006.245l.011.049a.359.359 0 0 0 .082.166.422.422 0 0 0 .3.182.355.355 0 0 0 .185 0l.117-.046a.461.461 0 0 0 .168-.17l.049-.109a.469.469 0 0 0 .007-.245l-.012-.049a.355.355 0 0 0-.078-.162z" transform="translate(-129.979 -82.789)" style="fill:#3b1411"/>
                    <path data-name="Path 1207" d="M383.711 225.043a.422.422 0 0 0-.3-.182.355.355 0 0 0-.185 0l-.117.046a.46.46 0 0 0-.172.166l-.049.109a.47.47 0 0 0-.007.245l.012.049a.352.352 0 0 0 .081.165.425.425 0 0 0 .3.182.355.355 0 0 0 .185 0l.117-.046a.471.471 0 0 0 .172-.166l.049-.109a.462.462 0 0 0 .006-.245l-.012-.049a.355.355 0 0 0-.08-.165z" transform="translate(-132.222 -82.393)" style="fill:#3b1411"/>
                    <path data-name="Path 1208" d="M368.932 232.5a.3.3 0 0 1-.422-.1.277.277 0 0 1 .026-.24.271.271 0 0 1 .176-.151.189.189 0 0 0 .119-.273 1.15 1.15 0 0 0-1.312-.663.721.721 0 0 0-.484.538.522.522 0 0 0 .053.348c.033.062.158.213.231.1.043-.064.007-.135.01-.2a.679.679 0 0 1 .042-.218.393.393 0 0 1 .329-.244.757.757 0 0 1 .7.362.614.614 0 0 0-.175.776.646.646 0 0 0 .866.246c.177-.103.017-.39-.159-.281z" transform="translate(-126.952 -84.447)" style="fill:#ffab90"/>
                </g>
                <path data-name="Path 1209" d="M377.017 222.177a5.242 5.242 0 0 0-2.663 1.035c-.22.166.064.486.284.321a4.834 4.834 0 0 1 2.461-.936.216.216 0 0 0 .169-.252.219.219 0 0 0-.251-.168z" transform="translate(-129.364 -81.503)" style="fill:#6c301e"/>
                <path data-name="Path 1210" d="M383.925 222.068a1.971 1.971 0 0 0-1.753-.5.214.214 0 0 0 .083.42 1.791 1.791 0 0 1 .2-.031h.158a2 2 0 0 1 .2.018l.053.009h.022l.037.009.051.014a1.555 1.555 0 0 1 .181.061c.029.011.059.025.087.037l.013.006.047.025a1.34 1.34 0 0 1 .245.165l.025.021.029.027a.22.22 0 0 0 .3.019.216.216 0 0 0 .022-.3z" transform="translate(-131.932 -81.286)" style="fill:#6c301e"/>
                <path data-name="Path 1211" d="m381.788 236.187-1.4.2a.217.217 0 0 0-.169.252.219.219 0 0 0 .252.169l1.4-.2a.216.216 0 0 0 .169-.252.219.219 0 0 0-.252-.169z" transform="translate(-131.338 -86.163)" style="fill:#ffab90"/>
                <path data-name="Path 1212" d="M382.691 229.516a1.634 1.634 0 0 0-.649-.519.933.933 0 0 1-.5-.451.215.215 0 0 0-.287-.1.219.219 0 0 0-.1.287c.174.477.7.563 1.045.861a.357.357 0 0 1 .126.475c-.129.214-.371.337-.541.513a.219.219 0 0 0-.019.3.216.216 0 0 0 .3.019 3.955 3.955 0 0 0 .613-.6.731.731 0 0 0 .012-.785z" transform="translate(-131.647 -83.583)" style="fill:#ffab90"/>
                <path data-name="Path 1213" d="M381.241 234.329a.219.219 0 0 0-.288-.1 3.129 3.129 0 0 1-1.941.085.22.22 0 0 0-.273.131.217.217 0 0 0 .132.273 3.617 3.617 0 0 0 2.273-.107.217.217 0 0 0 .097-.282z" transform="translate(-130.845 -85.508)" style="fill:#3b1411"/>
            </g>
            <g data-name="Group 496">
                <path data-name="Path 1214" d="M366.177 298.073a9.86 9.86 0 0 1-4.006 6.439c-.224.159.067.474.29.316a10.275 10.275 0 0 0 4.144-6.736c.044-.272-.385-.292-.428-.019z" transform="translate(-125.311 -106.684)" style="fill:#ffc005"/>
                <path data-name="Path 1215" d="m381.527 297.27-13.15.382c-.274.008-.295.436-.019.428l13.15-.382c.274-.008.292-.436.019-.428z" transform="translate(-127.33 -106.481)" style="fill:#ffc005"/>
                <path data-name="Path 1216" d="M390.7 302.688a5.815 5.815 0 0 1-2.5-5.2c.021-.275-.407-.294-.428-.019a6.249 6.249 0 0 0 2.7 5.581c.221.15.453-.207.228-.362z" transform="translate(-133.845 -106.481)" style="fill:#ffc005"/>
            </g>
            <path data-name="Path 1217" d="M359.351 295.959 346.069 285.9a6.294 6.294 0 0 0-3.01 5.841l14.367 7.371a13.039 13.039 0 0 0 1.925-3.153z" transform="translate(-118.979 -102.699)" style="fill:#ffc9b9"/>
            <path data-name="Path 1218" d="M345.885 285.658a6.577 6.577 0 0 0-3.67 6.669c.035.273.452.176.418-.1a6.142 6.142 0 0 1 3.452-6.193c.251-.112.05-.491-.2-.376z" transform="translate(-118.684 -102.611)" style="fill:#ffc005"/>
            <path data-name="Path 1219" d="M348.634 284.858a4.176 4.176 0 0 0-4.7-1.181c-.256.1-.054.481.2.379a3.741 3.741 0 0 1 4.183 1.091c.177.213.492-.077.317-.289z" transform="translate(-119.233 -101.864)" style="fill:#ffc005"/>
            <path data-name="Path 1220" d="M360.014 265.452c-.019-.272-.447-.294-.428-.019a63.766 63.766 0 0 1-.32 12.279c-.034.274.394.291.428.019a63.714 63.714 0 0 0 .32-12.279z" transform="translate(-124.37 -95.826)" style="fill:#ffc005"/>
            <path data-name="Path 1221" d="M376.933 247.517c-.087-.259-.505-.167-.418.1a3.051 3.051 0 0 1-.777 2.766 5.591 5.591 0 0 1-.921 1.056.963.963 0 0 1-1.243-.021c-.376-.26-.71-.581-1.078-.854a12.855 12.855 0 0 0-1.2-.793 13.506 13.506 0 0 0-2.593-1.158c-.928-.3-2.158-.67-2.312-1.8-.037-.273-.454-.176-.418.1a2.641 2.641 0 0 0 1.981 1.912 18.079 18.079 0 0 1 3.07 1.291 12.932 12.932 0 0 1 1.355.9 8.36 8.36 0 0 0 1.249.937c1 .493 1.7-.353 2.266-1.064.743-.952 1.454-2.134 1.039-3.372z" transform="translate(-126.6 -89.642)" style="fill:#ffc005"/>
            <path data-name="Path 1222" d="M371.811 255.794c-.09-.257-.509-.165-.418.1a16.988 16.988 0 0 1 .744 8.278c-.043.272.385.289.428.019a17.257 17.257 0 0 0-.754-8.397z" transform="translate(-128.401 -92.635)" style="fill:#fff"/>
            <path data-name="Path 1223" d="M383.045 254.873c-.082-.261-.5-.168-.418.1a18.752 18.752 0 0 1 .476 9.492c-.057.268.35.4.408.132a19.2 19.2 0 0 0-.466-9.724z" transform="translate(-132.138 -92.327)" style="fill:#fff"/>
            <path data-name="Path 1224" d="m356.812 411.49-2.62-14.256c-.889-4.835-1.279-14.891-1.167-19.805l.119-5.195-4.25-25.551h15.159l-4.093 26.328.545 2.632c1.2 5.786 1.681 16.838 1.434 22.741l-.553 13.232z" transform="translate(-120.922 -122.915)" style="fill:#ffc9b9"/>
            <path data-name="Path 1225" d="m390.555 346.591-8.891 64.809h-4.575l-.776-17.517c-.222-5.035.517-15.207 2.178-19.966l-3.927-27.509z" transform="translate(-129.459 -122.824)" style="fill:#ffc9b9"/>
            <path data-name="Path 1226" d="M364.054 346.682h-15.16l.229 1.376h14.717z" transform="translate(-120.922 -122.915)" style="fill:#ffab90"/>
            <path data-name="Path 1227" d="m360.075 373.7 3.88-24.952h-14.717l4.021 24.175-.119 5.195c-.113 4.915.278 14.97 1.167 19.806l2.62 14.256 4.576.125.553-13.232c.246-5.9-.236-16.956-1.434-22.741z" transform="translate(-121.036 -123.601)" style="fill:#ffc9b9"/>
            <path data-name="Path 1228" d="m390.555 346.591-15.991-.184.223 1.56h15.58z" transform="translate(-129.459 -122.824)" style="fill:#ffab90"/>
            <path data-name="Path 1229" d="m374.9 348.744 3.7 25.949c-1.661 4.758-2.4 14.931-2.178 19.966l.775 17.517h4.575l8.7-63.432z" transform="translate(-129.57 -123.601)" style="fill:#ffc9b9"/>
            <path data-name="Path 1230" d="M414.25 202.539v-.039l2.6-4.877-2.8-2.122-2.766 1.059-.5 4.07a6.157 6.157 0 0 0-.266 1.69z" transform="translate(-141.422 -72.632)" style="fill:#ffc9b9"/>
            <path data-name="Path 1231" d="m399.823 122.8 9.628 19.509 21.529 3.128-15.58 15.188 3.678 21.442-19.256-10.124-19.256 10.124 3.678-21.442-15.579-15.186 21.529-3.128z" transform="translate(-127.498 -48.451)" style="fill:#feb12f"/>
            <path data-name="Path 1232" d="m377.27 154.847-8.6 1.251 15.578 15.185-3.677 21.443 19.252-10.126 19.256 10.124-3.121-18.2c-14.982-.634-29.864-7.637-38.688-19.677z" transform="translate(-127.498 -59.109)" style="fill:#fea30a"/>
            <g data-name="Group 497">
                <path data-name="Path 1233" d="M410.6 201.625a2.651 2.651 0 0 0 .957-2.2 2.523 2.523 0 0 0-1.065-2.106 3.115 3.115 0 0 0-2.1-2.857 33.989 33.989 0 0 1 1.43 7.514z" transform="translate(-140.709 -72.285)" style="fill:#ffc9b9"/>
                <path data-name="Path 1234" d="M410.343 195.514c.38.2.51.774.593 1.272a2.543 2.543 0 0 0 .228.838c.14.243.37.352.551.526a2.267 2.267 0 0 1 .665 1.481 5.87 5.87 0 0 1-.293 1.965c-.055.2-.272.044-.217-.158a5.109 5.109 0 0 0 .258-1.863 1.891 1.891 0 0 0-.769-1.328 1.41 1.41 0 0 1-.427-.489 2.583 2.583 0 0 1-.2-.679c-.083-.462-.137-1.073-.506-1.265-.145-.077-.026-.376.117-.3z" transform="translate(-141.299 -72.632)" style="fill:#ffab90"/>
            </g>
            <path data-name="Path 1235" d="M376.022 217.581a6.459 6.459 0 0 1-1.569 1.2 3.255 3.255 0 0 0-1.344 1.344 5.839 5.839 0 0 0-.047 1.957 2.991 2.991 0 0 1-1.357 2.272 4.738 4.738 0 0 1-3.017.76c-.115-2.055-.2-4.225 1.025-6.037a7.059 7.059 0 0 1 3.715-2.6c1.316-.42 4.108-.777 2.594 1.104z" transform="translate(-127.485 -79.496)" style="fill:#2b2b47"/>
        </g>
        <g data-name="Group 519">
            <path data-name="Path 1236" d="M149.426 226.981c-.664.849-1.3 1.658-1.88 2.359-3.813.808-5 1.995-6.592 5.553l2.78 13.57c5.534-1.923 9.753-7.378 13.437-11.934q.473-.585.926-1.155a7.078 7.078 0 0 1-.875-.1 9.867 9.867 0 0 1-7.796-8.293z" transform="translate(-51.759 -83.102)" style="fill:#ffd140"/>
            <path data-name="Path 1237" d="M166.2 218.5c-.587-1.823-1.923-3.768-3.837-3.723a4.7 4.7 0 0 0-2.766 1.319 50.229 50.229 0 0 0-5.95 6.827 9.867 9.867 0 0 0 7.8 8.291 7.072 7.072 0 0 0 .875.1c3.218-4.069 5.519-7.714 3.878-12.814z" transform="translate(-55.981 -79.042)" style="fill:#ffab91"/>
            <path data-name="Path 1238" d="M101.508 233.546a4.075 4.075 0 0 0-1.3-2.927A7.353 7.353 0 0 0 97.375 229a12.724 12.724 0 0 0-7.019-.186 138.181 138.181 0 0 1-11.739-8.944c-2.317 1.712-4.728 5.346-6.545 7.582 7.109 8.707 16.387 14.47 26.939 18.347z" transform="translate(-28.848 -80.737)" style="fill:#ffab91"/>
            <path data-name="Path 1239" d="M106.751 236.714a4.075 4.075 0 0 0-1.3-2.927 7.349 7.349 0 0 0-2.834-1.62 12.722 12.722 0 0 0-7.018-.185 135.4 135.4 0 0 1-3.657-2.587 21.541 21.541 0 0 0-4.108 11.065 68.731 68.731 0 0 0 16.418 8.507z" transform="translate(-34.091 -83.905)" style="fill:#ffd140"/>
            <path data-name="Path 1240" d="M102.243 251.879c-4.7-3.662-9.205-7.594-13.756-11.412a29.5 29.5 0 0 0-.652 3.675 67.2 67.2 0 0 0 14.408 7.737z" transform="translate(-34.091 -87.588)" style="fill:#ffc005"/>
            <g data-name="Group 503">
                <g data-name="Group 502">
                    <g data-name="Group 499">
                        <path data-name="Path 1241" d="M106.733 312.9c14.613 1.751 14.4 10.855 14.4 10.855l-5.9 37.948-4.216 33.065h-6.97a429.947 429.947 0 0 1 2.686-81.868z" transform="translate(-39.196 -111.678)" style="fill:#ff2a2a"/>
                        <path data-name="Path 1242" d="M120.573 324.141s-6.5-4.535-7.262-8.5l24.4.945s4.08 51.248 3.976 79.093h-6.912z" transform="translate(-42.565 -112.59)" style="fill:#ff6969"/>
                        <path data-name="Path 1243" d="M152.059 435.565c0 1.036-.008 2.042-.02 3.009h-5.515l-.308-3.009z" transform="translate(-53.509 -152.479)" style="fill:#ffab91"/>
                        <path data-name="Path 1244" d="M111.141 435.565c0 1.036-.008 2.042-.02 3.009h-5.515l-.308-3.009z" transform="translate(-39.899 -152.479)" style="fill:#ffab91"/>
                        <path data-name="Path 1245" d="M115.308 318.714a10.343 10.343 0 0 1-2.712-4.548l24.659-1.27s.2 2.887.294 4.086a62.315 62.315 0 0 1-22.241 1.732z" transform="translate(-42.327 -111.678)" style="fill:#ff2a2a"/>
                    </g>
                    <g data-name="Group 500">
                        <path data-name="Path 1246" d="m145.465 439.3 6.456-.193a16.813 16.813 0 0 1 3.709 7.345h-11.656a32.2 32.2 0 0 1 1.491-7.152z" transform="translate(-52.764 -153.658)" style="fill:#191933"/>
                        <path data-name="Path 1247" d="M155.59 450.116c.06.262.122.525.17.79a.659.659 0 0 1-.6.808h-10.687a.648.648 0 0 1-.614-.716c.021-.294.047-.589.076-.882z" transform="translate(-52.725 -157.319)" style="fill:#191933"/>
                    </g>
                    <g data-name="Group 501">
                        <path data-name="Path 1248" d="m104.75 439.3-6.45-.19c-1.8 2.038-12.632 4.6-13.259 7.345h21.206a32.158 32.158 0 0 0-1.497-7.155z" transform="translate(-33.161 -153.658)" style="fill:#191933"/>
                        <path data-name="Path 1249" d="M84.945 450.116c-.06.262-.122.525-.17.79a.66.66 0 0 0 .6.808h20.237a.648.648 0 0 0 .614-.716 37.003 37.003 0 0 0-.076-.882z" transform="translate(-33.07 -157.319)" style="fill:#191933"/>
                    </g>
                </g>
                <path data-name="Path 1250" d="M147.295 385.415c.8-1.5 1.638-2.957 2.3-4.537a44.957 44.957 0 0 0 1.634-4.928c.059-.2.326-.119.292.088a24 24 0 0 1-1.521 5.031 21.336 21.336 0 0 1-2.42 4.585c-.131.177-.386-.054-.285-.239z" transform="translate(-53.861 -132.611)" style="fill:#a86114"/>
            </g>
            <path data-name="Path 1251" d="M108.417 239.766a5.2 5.2 0 0 1 3.208-4.516 28.178 28.178 0 0 1 12.584-1.915 47.693 47.693 0 0 1 11.5 2.337 5.216 5.216 0 0 1 3.536 5.8 226.743 226.743 0 0 0-2.67 44.154c.037.954.126 2.329-.786 2.613-8.391 2.617-20.354 3.049-28.339.922-1.98-.527-.42-2.354-.426-4.4-.04-14.67.638-30.478 1.393-44.995z" transform="translate(-40.281 -85.194)" style="fill:#ffd140"/>
            <g data-name="Group 508">
                <g data-name="Group 507">
                    <g data-name="Group 504">
                        <path data-name="Path 1252" d="M133.449 219.411a48.764 48.764 0 0 0 .225 9.813 1.786 1.786 0 0 1-.74 1.689 7.317 7.317 0 0 1-5.208 1.243 1.766 1.766 0 0 1-1.479-1.9 58.366 58.366 0 0 0 .178-6.308 14.157 14.157 0 0 1 7.024-4.537z" transform="translate(-46.866 -80.584)" style="fill:#ffab91"/>
                    </g>
                    <g data-name="Group 505">
                        <path data-name="Path 1253" d="M126.424 223.949a14.158 14.158 0 0 1 7.024-4.538 48.759 48.759 0 0 0-.143 4.188c-1.245 3.406-3.5 6.653-6.534 8.07a1.782 1.782 0 0 1-.525-1.412 58.362 58.362 0 0 0 .178-6.308z" transform="translate(-46.866 -80.584)" style="fill:#ff8a65"/>
                    </g>
                    <path data-name="Path 1254" d="m131.015 212.059 1.133-4.259a5.106 5.106 0 0 0 .248-2.268 1.746 1.746 0 0 0-1.522-1.486 9.971 9.971 0 0 0-9.307-4.244 5.3 5.3 0 0 0-3.338 1.489 5.85 5.85 0 0 0-1.2 4.036c.012 1.712.778 1.9 1.951 3.143 1.117 1.188 2.373 3.3 3.98 3.573a24.49 24.49 0 0 0 8.055.016z" transform="translate(-43.803 -74.039)" style="fill:#3e2410"/>
                    <path data-name="Path 1255" d="m131.085 212.643 1.026-3.884a4.681 4.681 0 0 0 .224-2.069 1.586 1.586 0 0 0-1.378-1.355 9 9 0 0 0-8.426-3.87 4.787 4.787 0 0 0-3.022 1.357 5.362 5.362 0 0 0-1.084 3.681c.011 1.562.7 1.729 1.767 2.867 1.012 1.083 2.149 3.007 3.6 3.258a22.011 22.011 0 0 0 7.293.015z" transform="translate(-44.266 -74.594)" style="fill:#2b2b47"/>
                    <g data-name="Group 506">
                        <path data-name="Path 1256" d="M119.656 209.869c-.609 4.562 1.268 12.64 3.789 12.732 5.383.195 6.536-3.187 7.439-6.506a.989.989 0 0 0 .766.249 1.9 1.9 0 0 0 1.121-.8 2.249 2.249 0 0 0 .388-2.286 1.23 1.23 0 0 0-2.213-.025 12.88 12.88 0 0 0-1.087-4.771 1.775 1.775 0 0 0-1.068-1.063 12.874 12.874 0 0 0-7.777-.112 1.522 1.522 0 0 0-.99 1 10.606 10.606 0 0 0-.368 1.582z" transform="translate(-44.637 -76.369)" style="fill:#ffab91"/>
                        <path data-name="Path 1257" d="M128.989 220.511a11.182 11.182 0 0 0-8.063.858c.709 2.453 1.771 4.339 2.981 4.382 5.132.186 6.419-2.88 7.311-6.042l.351-3.5z" transform="translate(-45.098 -79.519)" style="opacity:.37;mix-blend-mode:multiply;isolation:isolate;fill:#170d05"/>
                        <path data-name="Path 1258" d="M138.749 216.154a1.271 1.271 0 0 0-1.915-.422l-.137.227-.351 3.5q.065-.231.128-.464a.989.989 0 0 0 .766.249 1.9 1.9 0 0 0 1.121-.8 2.249 2.249 0 0 0 .388-2.29z" transform="translate(-50.227 -79.266)" style="fill:#ffab91"/>
                        <path data-name="Path 1259" d="M130.946 213.232a12.879 12.879 0 0 0-1.087-4.77 1.775 1.775 0 0 0-1.068-1.063 12.874 12.874 0 0 0-7.777-.112 1.522 1.522 0 0 0-.99 1 10.6 10.6 0 0 0-.367 1.582 22.453 22.453 0 0 0 .809 8.35 11.182 11.182 0 0 1 8.063-.858l2.579-4.3.009-.087a1.359 1.359 0 0 0-.171.258z" transform="translate(-44.637 -76.369)" style="fill:#ffab91"/>
                        <path data-name="Path 1260" d="m136.881 216.011-.009.087.137-.227a1.224 1.224 0 0 0-.128.14z" transform="translate(-50.401 -79.406)" style="fill:#ffab91"/>
                        <path data-name="Path 1261" d="M126.988 211.621c.735-.932 2.754-.289 3.5.31.135.109.3.25.283.443a.232.232 0 0 1-.164.216c-.228.065-.445-.124-.635-.224a3.218 3.218 0 0 0-1.841-.353 3.956 3.956 0 0 1-1 .142c-.268-.04-.272-.371-.143-.534z" transform="translate(-47.086 -77.836)" style="fill:#170d05"/>
                        <path data-name="Path 1262" d="M128.62 214.167a.34.34 0 0 1 .093-.144.334.334 0 0 1 .144-.093.343.343 0 0 1 .173-.039l.119.016a.453.453 0 0 1 .2.115l.07.091a.443.443 0 0 1 .061.226v.048a.343.343 0 0 1-.039.173.4.4 0 0 1-.237.237.341.341 0 0 1-.173.039l-.119-.016a.451.451 0 0 1-.2-.115l-.07-.091a.45.45 0 0 1-.061-.226v-.048a.342.342 0 0 1 .039-.173z" transform="translate(-47.644 -78.747)" style="fill:#3b1411"/>
                        <path data-name="Path 1263" d="M121.267 214.583a.461.461 0 0 1 .41-.276l.119.016a.453.453 0 0 1 .2.115l.07.091a.45.45 0 0 1 .061.226v.048a.341.341 0 0 1-.039.173.461.461 0 0 1-.41.276l-.119-.016a.447.447 0 0 1-.2-.115l-.07-.091a.448.448 0 0 1-.061-.226v-.048a.343.343 0 0 1 .039-.173z" transform="translate(-45.198 -78.886)" style="fill:#3b1411"/>
                        <path data-name="Path 1264" d="M119.916 212.483a1.358 1.358 0 0 1 .907-.606 2.112 2.112 0 0 1 1.062-.02.335.335 0 0 1 .24.368c-.037.273-.268.282-.484.285a2.176 2.176 0 0 0-.839.156c-.182.077-1.133.553-.942-.049a.957.957 0 0 1 .056-.134z" transform="translate(-44.735 -78.051)" style="fill:#170d05"/>
                        <path data-name="Path 1265" d="M137.088 218.211a.286.286 0 0 0 .371-.187.268.268 0 0 0-.079-.218.259.259 0 0 0-.2-.1.181.181 0 0 1-.173-.227 1.1 1.1 0 0 1 1.071-.914.692.692 0 0 1 .572.391.5.5 0 0 1 .029.336c-.017.065-.1.234-.191.15-.055-.05-.038-.124-.056-.189a.647.647 0 0 0-.088-.193.377.377 0 0 0-.362-.152.725.725 0 0 0-.567.495.588.588 0 0 1 .338.683.618.618 0 0 1-.751.424c-.187-.059-.102-.362.086-.299z" transform="translate(-50.41 -79.635)" style="fill:#ff8a65"/>
                    </g>
                </g>
            </g>
            <path data-name="Path 1266" d="M116.948 306.762a20.231 20.231 0 0 0 10.192-1.72 20.084 20.084 0 0 0 10.16-10.532c.1-.24.457-.051.358.188a20.593 20.593 0 0 1-5.688 7.756 20.328 20.328 0 0 1-9.18 4.4 20.638 20.638 0 0 1-5.932.3c-.258-.022-.166-.416.09-.392z" transform="translate(-43.694 -105.526)" style="fill:#ffc005"/>
            <path data-name="Path 1267" d="M126.6 238.667a8.423 8.423 0 0 0 7.967-1.923c.189-.178.489.095.3.273a8.836 8.836 0 0 1-8.356 2.044c-.249-.071-.162-.461.089-.394z" transform="translate(-46.906 -86.33)" style="fill:#ffc005"/>
            <path data-name="Path 1268" d="M122.616 216.959a2.831 2.831 0 0 0 .755-1.239c.044-.256.438-.166.394.09-.15.868-1 1.319-1.288 2.111a1.236 1.236 0 0 0 1.57 1.6.2.2 0 0 1 .125.384 1.657 1.657 0 0 1-2.172-1.629 2.29 2.29 0 0 1 .616-1.317z" transform="translate(-45.454 -79.306)" style="fill:#ff8a65"/>
            <path data-name="Path 1269" d="M127.833 223.812a3.392 3.392 0 0 1-3.31 1.263c-.268-.055-.4.353-.132.408a3.838 3.838 0 0 0 3.8-1.438c.168-.222-.191-.453-.358-.233z" transform="translate(-46.201 -82.018)" style="fill:#3b1411"/>
            <g data-name="Group 509">
                <path data-name="Path 1270" d="m105.272 104.684 9.628 19.509 21.529 3.128-15.579 15.186 3.678 21.442-19.256-10.124-19.257 10.124 3.678-21.442-15.579-15.186 21.529-3.128z" transform="translate(-29.528 -42.425)" style="fill:#feb12f"/>
                <path data-name="Path 1271" d="m82.719 136.73-8.6 1.25 15.579 15.185-3.678 21.443 19.257-10.124 19.256 10.124-3.121-18.2c-14.988-.636-29.87-7.638-38.693-19.678z" transform="translate(-29.528 -53.084)" style="fill:#fea30a"/>
            </g>
            <g data-name="Group 511">
                <g data-name="Group 510">
                    <path data-name="Path 1272" d="M97.444 180.757a1.924 1.924 0 0 1 .767.025.718.718 0 0 1 .52.519.752.752 0 0 1-.45.744 2.846 2.846 0 0 1-.9.211 6.256 6.256 0 0 0-2.9 1.235 11.122 11.122 0 0 1-1.3 1c-1.65.926-2.939-.853-1.221-1.909a13.489 13.489 0 0 1 5.484-1.825z" transform="translate(-35.192 -67.719)" style="fill:#ffab91"/>
                    <path data-name="Path 1273" d="M98.914 183.144a1.924 1.924 0 0 1 .767.025.715.715 0 0 1 .519.519.751.751 0 0 1-.449.744 2.883 2.883 0 0 1-.9.211 6.255 6.255 0 0 0-2.9 1.234 11.261 11.261 0 0 1-1.3 1c-1.65.925-2.939-.853-1.221-1.909a13.465 13.465 0 0 1 5.484-1.824z" transform="translate(-35.681 -68.513)" style="fill:#ffab91"/>
                    <path data-name="Path 1274" d="M98.477 185.838a1.912 1.912 0 0 1 .767.025.717.717 0 0 1 .519.519.753.753 0 0 1-.449.744 2.887 2.887 0 0 1-.9.211 6.253 6.253 0 0 0-2.9 1.234 11.117 11.117 0 0 1-1.3 1c-1.65.926-2.939-.852-1.221-1.909a13.463 13.463 0 0 1 5.484-1.824z" transform="translate(-35.536 -69.409)" style="fill:#ffab91"/>
                    <path data-name="Path 1275" d="M97.766 188.592a1.567 1.567 0 0 1 .626.02.586.586 0 0 1 .424.423.616.616 0 0 1-.367.608 2.366 2.366 0 0 1-.737.172 5.1 5.1 0 0 0-2.366 1.008 9.158 9.158 0 0 1-1.063.814c-1.347.755-2.4-.7-1-1.559a11 11 0 0 1 4.483-1.486z" transform="translate(-35.684 -70.326)" style="fill:#ffab91"/>
                    <path data-name="Path 1276" d="M90.618 183.509a9.511 9.511 0 0 0-2.024 2.273 4.529 4.529 0 0 0-.792 3.372 2.79 2.79 0 0 0 2.423 2.249 3.1 3.1 0 0 0 1.959-.693 4.79 4.79 0 0 0 .089-7.6z" transform="translate(-34.056 -68.511)" style="fill:#ffab91"/>
                </g>
                <path data-name="Path 1277" d="M83.053 188.571c-2.668 3.214-13.053 19.472-13.114 23.594a7.748 7.748 0 0 0 2.359 5.921 3.191 3.191 0 0 0 5.238-.9c2.2-3.831 6.555-20.777 7.593-25.976z" transform="translate(-28.139 -70.326)" style="fill:#ffab91"/>
            </g>
            <g data-name="Group 513">
                <g data-name="Group 512">
                    <path data-name="Path 1278" d="M140.746 178.376a1.924 1.924 0 0 0-.767.025.718.718 0 0 0-.52.519.753.753 0 0 0 .45.744 2.883 2.883 0 0 0 .9.211 6.254 6.254 0 0 1 2.9 1.234 11.129 11.129 0 0 0 1.3 1c1.65.925 2.939-.853 1.221-1.909a13.478 13.478 0 0 0-5.484-1.824z" transform="translate(-51.259 -66.927)" style="fill:#ffab91"/>
                    <path data-name="Path 1279" d="M139.276 180.763a1.911 1.911 0 0 0-.767.025.715.715 0 0 0-.519.519.752.752 0 0 0 .449.744 2.883 2.883 0 0 0 .9.211 6.248 6.248 0 0 1 2.9 1.234 11.184 11.184 0 0 0 1.3 1c1.65.926 2.939-.853 1.221-1.909a13.465 13.465 0 0 0-5.484-1.824z" transform="translate(-50.771 -67.721)" style="fill:#ffab91"/>
                    <path data-name="Path 1280" d="M139.713 183.457a1.912 1.912 0 0 0-.767.025.717.717 0 0 0-.519.519.754.754 0 0 0 .449.744 2.887 2.887 0 0 0 .9.211 6.247 6.247 0 0 1 2.9 1.234 11.068 11.068 0 0 0 1.3 1c1.649.926 2.939-.853 1.221-1.909a13.462 13.462 0 0 0-5.484-1.824z" transform="translate(-50.916 -68.617)" style="fill:#ffab91"/>
                    <path data-name="Path 1281" d="M141.119 186.211a1.567 1.567 0 0 0-.626.02.586.586 0 0 0-.424.423.615.615 0 0 0 .367.607 2.349 2.349 0 0 0 .737.173 5.1 5.1 0 0 1 2.366 1.007 9.085 9.085 0 0 0 1.063.814c1.347.756 2.4-.7 1-1.558a10.991 10.991 0 0 0-4.483-1.486z" transform="translate(-51.463 -69.534)" style="fill:#ffab91"/>
                    <path data-name="Path 1282" d="M148.18 181.128a9.52 9.52 0 0 1 2.02 2.272 4.532 4.532 0 0 1 .792 3.372 2.79 2.79 0 0 1-2.423 2.248 3.1 3.1 0 0 1-1.959-.692 4.79 4.79 0 0 1-.089-7.6z" transform="translate(-53.004 -67.719)" style="fill:#ffab91"/>
                </g>
                <path data-name="Path 1283" d="M151.351 186.189c2.669 3.214 13.055 19.473 13.115 23.595a7.75 7.75 0 0 1-2.359 5.921 3.192 3.192 0 0 1-5.238-.9c-2.2-3.832-6.555-20.777-7.593-25.976z" transform="translate(-54.527 -69.534)" style="fill:#ffab91"/>
            </g>
            <path data-name="Path 1284" d="m160.726 239.864-7.851 9.28-2.248 2.657c-.176.208.111.527.289.316l7.851-9.28 2.248-2.657c.176-.208-.115-.527-.289-.316z" transform="translate(-54.958 -87.364)" style="fill:#ffc005"/>
            <path data-name="Path 1285" d="M108.149 242.316q-.35 5.428-.574 10.862-.223 5.461-.316 10.927-.052 3.065-.063 6.131c0 .275.427.3.428.019q.02-5.439.168-10.877.15-5.464.43-10.923.157-3.062.356-6.122a.215.215 0 0 0-.429-.017z" transform="translate(-39.734 -88.137)" style="fill:#ffc005"/>
            <g data-name="Group 518">
                <g data-name="Group 514">
                    <path data-name="Path 1286" d="M119.688 216.683a2.1 2.1 0 1 1 2.1-2.1 2.106 2.106 0 0 1-2.1 2.1zm0-3.993a1.889 1.889 0 1 0 1.889 1.889 1.892 1.892 0 0 0-1.889-1.889z" transform="translate(-43.986 -78.277)" style="fill:#170d05"/>
                </g>
                <g data-name="Group 515">
                    <path data-name="Path 1287" d="M127.4 216.683a2.1 2.1 0 1 1 2.1-2.1 2.106 2.106 0 0 1-2.1 2.1zm0-3.993a1.889 1.889 0 1 0 1.889 1.889 1.892 1.892 0 0 0-1.889-1.889z" transform="translate(-46.551 -78.277)" style="fill:#170d05"/>
                </g>
                <g data-name="Group 516">
                    <path data-name="Path 1288" d="m123.7 214.431-.148-.155a1.091 1.091 0 0 1 1.4-.059l-.135.167a.882.882 0 0 0-1.117.047z" transform="translate(-45.971 -78.78)" style="fill:#170d05"/>
                </g>
                <g data-name="Group 517">
                    <path data-name="Path 1289" d="M135.487 215.26a8.254 8.254 0 0 0-4.126-.446l-.031-.212a8.472 8.472 0 0 1 4.233.458z" transform="translate(-48.558 -78.954)" style="fill:#170d05"/>
                </g>
            </g>
        </g>
        <path data-name="Rectangle 221" transform="translate(37.307 294.395)" style="fill:#001e4a" d="M0 0h249.329v1.604H0z"/>
    </g>
</svg>
