<svg xmlns="http://www.w3.org/2000/svg" width="15.972" height="16" viewBox="0 0 15.972 16">
    <path data-name="Path 43736" d="m14.993-4-3.061-1.316A1.6 1.6 0 0 0 10.9-5.41a1.53 1.53 0 0 0-.875.562l-.873 1.062a9.434 9.434 0 0 1-3.373-3.342L6.841-8a1.53 1.53 0 0 0 .559-.877 1.6 1.6 0 0 0-.094-1.031L6-13a1.566 1.566 0 0 0-.781-.812 1.52 1.52 0 0 0-1.093-.156l-2.842.656a1.7 1.7 0 0 0-.937.593 1.574 1.574 0 0 0-.344 1 13.507 13.507 0 0 0 1.871 6.934 14.175 14.175 0 0 0 4.9 4.9 13.507 13.507 0 0 0 6.934 1.874 1.574 1.574 0 0 0 1-.344 1.555 1.555 0 0 0 .562-.937l.66-2.838a1.628 1.628 0 0 0-.125-1.093A1.566 1.566 0 0 0 14.993-4zm-.5 1.531L13.838.4a.2.2 0 0 1-.125.094 12.092 12.092 0 0 1-6.154-1.656 12.739 12.739 0 0 1-4.4-4.4A12.092 12.092 0 0 1 1.5-11.72a.122.122 0 0 1 .094-.125l2.873-.655H4.5q.062 0 .125.094l1.31 3.06a.142.142 0 0 1-.035.156L4.373-7.971a.728.728 0 0 0-.219.906 11.574 11.574 0 0 0 2.03 2.842 10.574 10.574 0 0 0 2.842 2.03.74.74 0 0 0 .906-.219l1.249-1.5a.127.127 0 0 1 .156-.062L14.4-2.661a.27.27 0 0 1 .093.187z" transform="translate(0 14.007)" style="fill:#fff"/>
</svg>
